<?xml version="1.0" encoding="UTF-8" standalone="no"?>
<!-- Created with Inkscape (http://www.inkscape.org/) -->

<svg
   width="110.09927mm"
   height="38.330685mm"
   viewBox="0 0 110.09927 38.330685"
   version="1.1"
   id="svg5"
   xml:space="preserve"
   inkscape:version="1.2.1 (9c6d41e410, 2022-07-14)"
   sodipodi:docname="logo.svg"
   xmlns:inkscape="http://www.inkscape.org/namespaces/inkscape"
   xmlns:sodipodi="http://sodipodi.sourceforge.net/DTD/sodipodi-0.dtd"
   xmlns="http://www.w3.org/2000/svg"
   xmlns:svg="http://www.w3.org/2000/svg"><sodipodi:namedview
     id="namedview7"
     pagecolor="#ffffff"
     bordercolor="#000000"
     borderopacity="0.25"
     inkscape:showpageshadow="2"
     inkscape:pageopacity="0.0"
     inkscape:pagecheckerboard="0"
     inkscape:deskcolor="#d1d1d1"
     inkscape:document-units="mm"
     showgrid="false"
     inkscape:zoom="1.3656843"
     inkscape:cx="193.30968"
     inkscape:cy="43.201786"
     inkscape:window-width="1920"
     inkscape:window-height="1009"
     inkscape:window-x="-8"
     inkscape:window-y="-8"
     inkscape:window-maximized="1"
     inkscape:current-layer="layer1" /><defs
     id="defs2" /><g
     inkscape:label="Camada 1"
     inkscape:groupmode="layer"
     id="layer1"
     transform="translate(-29.192602,-158.49643)"><path
       id="rect234"
       style="fill:#0030ca;stroke-width:0.298199;stroke-linecap:round"
       d="M 100.91846 160.62757 C 99.04529 160.62757 97.537268 162.1356 97.537268 164.00876 L 97.537268 191.05775 C 97.537268 192.93091 99.04529 194.43894 100.91846 194.43894 L 127.96745 194.43894 C 129.84061 194.43894 131.34864 192.93091 131.34864 191.05775 L 131.34864 164.00876 C 131.34864 162.1356 129.84061 160.62757 127.96745 160.62757 L 100.91846 160.62757 z M 109.0053 165.19783 C 109.6159 165.19783 110.22662 165.2741 110.83723 165.42676 C 111.46691 165.57941 112.08698 165.79889 112.69758 166.08511 L 111.92502 168.97589 C 111.6388 168.82324 111.30464 168.69923 110.92301 168.60382 C 110.54139 168.48934 110.1792 168.43226 109.83574 168.43226 C 109.18698 168.43226 108.69041 168.66108 108.34694 169.11904 C 108.00348 169.57699 107.83225 170.24479 107.83225 171.12253 L 107.83225 172.18138 L 111.49559 172.18138 L 111.49559 175.1011 L 107.83225 175.1011 L 107.83225 186.37793 L 103.99682 186.37793 L 103.99682 175.1011 L 102.02175 175.1011 L 102.02175 172.18138 L 103.99682 172.18138 L 103.99682 171.26568 C 103.99682 170.02539 104.19711 168.95701 104.59782 168.06019 C 105.01761 167.14429 105.59928 166.43808 106.34345 165.94197 C 107.1067 165.44585 107.99399 165.19783 109.0053 165.19783 z M 112.09659 171.3804 L 116.07515 171.3804 L 120.11108 182.45672 L 123.66022 171.3804 L 127.32356 171.3804 L 121.02679 189.35501 C 120.79782 190.02286 120.44497 190.62372 119.96794 191.158 C 119.50999 191.71136 118.9278 192.141 118.22179 192.4463 C 117.53487 192.77068 116.76225 192.93257 115.90359 192.93257 C 115.59828 192.93257 115.29266 192.90405 114.98737 192.84679 C 114.68207 192.80859 114.34842 192.73231 113.98588 192.61786 L 113.98588 189.29765 C 114.32934 189.37398 114.6443 189.44092 114.93052 189.49816 C 115.23582 189.55542 115.49319 189.58394 115.70308 189.58394 C 116.06563 189.58394 116.3614 189.48846 116.59037 189.29765 C 116.83843 189.12592 117.07711 188.80162 117.30609 188.32458 C 117.53507 187.86663 117.77324 187.21751 118.02129 186.37793 L 112.09659 171.3804 z "
       inkscape:export-filename="..\..\..\..\Users\henry.pereira\Desktop\icon.png"
       inkscape:export-xdpi="22.540001"
       inkscape:export-ydpi="22.540001" /><text
       xml:space="preserve"
       style="font-style:normal;font-variant:normal;font-weight:bold;font-stretch:normal;font-size:28.5106px;font-family:Raleway;-inkscape-font-specification:'Raleway, Bold';font-variant-ligatures:normal;font-variant-caps:normal;font-variant-numeric:normal;font-variant-east-asian:normal;fill:#0030ca;stroke-width:1.42553;stroke-linecap:round;fill-opacity:1"
       x="32.119972"
       y="186.96542"
       id="text344"><tspan
         sodipodi:role="line"
         id="tspan342"
         style="font-style:normal;font-variant:normal;font-weight:bold;font-stretch:normal;font-size:28.5106px;font-family:Raleway;-inkscape-font-specification:'Raleway, Bold';font-variant-ligatures:normal;font-variant-caps:normal;font-variant-numeric:normal;font-variant-east-asian:normal;stroke-width:1.42553;fill:#0030ca;fill-opacity:1"
         x="32.119972"
         y="186.96542">FHIR</tspan></text></g></svg>
